<?xml version="1.0" encoding="utf-8"?>
<!-- Generator: Adobe Illustrator 16.0.0, SVG Export Plug-In . SVG Version: 6.00 Build 0)  -->
<!DOCTYPE svg PUBLIC "-//W3C//DTD SVG 1.1//EN" "http://www.w3.org/Graphics/SVG/1.1/DTD/svg11.dtd">
<svg version="1.1" id="Layer_1" xmlns="http://www.w3.org/2000/svg" xmlns:xlink="http://www.w3.org/1999/xlink" x="0px" y="0px"
	 width="75.714px" height="92.104px" viewBox="0 9.181 75.714 92.104" enable-background="new 0 9.181 75.714 92.104"
	 xml:space="preserve">
<g>
	<g>
		<path fill="#662D91" d="M8.762,38.643c18.738,0.079,37.571,2.204,56.114-1.482c1.896-0.377,1.09-3.268-0.799-2.893
			C45.82,37.897,27.21,35.72,8.762,35.643C6.827,35.634,6.828,38.634,8.762,38.643L8.762,38.643z"/>
	</g>
</g>
<g>
	<g>
		<path fill="#662D91" d="M8.178,37.511c-9.276,7.263,19.395,29.162,25.196,31.75c9.064,4.045,19.224,2.814,25.529-5.141
			c6.25-7.886,7.706-19.151,8.026-28.882c0.064-1.936-2.938-1.929-3,0c-0.277,8.423-1.547,17.12-5.723,24.566
			c-5.064,9.032-14.237,10.103-23.332,6.845c-4.534-1.624-30.171-22.636-24.576-27.017C11.821,38.44,9.682,36.333,8.178,37.511
			L8.178,37.511z"/>
	</g>
</g>
<g>
	<g>
		<path fill="#662D91" d="M24.018,37.22c-3.021-8.671-3.243-18.13-2.803-27.22c-0.982,0.133-1.964,0.266-2.946,0.399
			c1.208,5.932,8.155,6.046,10.035,0.476c0.246-0.729-0.276-1.7-1.047-1.845c-2.707-0.509-5.263-0.864-8.018-0.53
			c-1.896,0.23-1.918,3.232,0,3c2.472-0.3,4.771-0.038,7.22,0.422c-0.349-0.615-0.698-1.23-1.047-1.845
			c-1.984,2.84-3.4,2.681-4.25-0.476C20.809,7.873,18.293,8.377,18.214,10c-0.451,9.326-0.191,19.117,2.911,28.018
			C21.757,39.832,24.656,39.052,24.018,37.22L24.018,37.22z"/>
	</g>
</g>
<g>
	<g>
		<path fill="#662D91" d="M25.357,10.476c-0.447,8.878,0.392,17.85,1.958,26.589c0.341,1.902,3.231,1.094,2.893-0.798
			c-1.519-8.473-2.285-17.184-1.851-25.792C28.454,8.542,25.454,8.551,25.357,10.476L25.357,10.476z"/>
	</g>
</g>
<g>
	<g>
		<path fill="#662D91" d="M40.744,8.554c-0.854,0.241-1.467,0.258-2.263,0.627c-0.642,0.298-0.799,1.074-0.689,1.694
			c1.184,6.705,14.698,6.077,15.75-0.476C53.694,9.452,53.151,8.5,52.095,8.5c-5.08,0-10.159,0-15.238,0c-1.935,0-1.935,3,0,3
			c5.08,0,10.159,0,15.238,0c-0.482-0.633-0.965-1.266-1.446-1.899c-0.587,3.658-9.301,4.23-9.964,0.476
			c-0.229,0.565-0.459,1.129-0.689,1.694c0.354-0.165,1.211-0.23,1.547-0.325C43.4,10.921,42.61,8.026,40.744,8.554L40.744,8.554z"
			/>
	</g>
</g>
<g>
	<g>
		<path fill="#662D91" d="M35.887,13.256c2.642,7.693,2.528,15.849,3.81,23.81c0.307,1.906,3.197,1.094,2.893-0.798
			c-1.282-7.977-1.16-16.096-3.81-23.81C38.155,10.64,35.257,11.421,35.887,13.256L35.887,13.256z"/>
	</g>
</g>
<g>
	<g>
		<path fill="#662D91" d="M49.643,10c-0.033,8.256-0.444,16.505-0.478,24.762c-0.008,1.935,2.992,1.934,3,0
			C52.199,26.505,52.61,18.256,52.643,10C52.651,8.065,49.651,8.066,49.643,10L49.643,10z"/>
	</g>
</g>
<g>
	<g>
		<path fill="#662D91" d="M35.624,70.819c2.052,0.963,1.974,10.816,2.14,12.715c0.39,4.465,0.844,9.129,0.45,13.608
			c-0.169,1.928,2.833,1.912,3,0c0.486-5.542-0.195-11.337-0.756-16.847c-0.287-2.816-0.164-10.586-3.32-12.068
			C35.397,67.411,33.874,69.997,35.624,70.819L35.624,70.819z"/>
	</g>
</g>
<g>
	<g>
		<path fill="#662D91" d="M44.935,68.495c1.316,8.698,0.979,17.526,1.852,26.268c0.752-0.432,1.504-0.863,2.256-1.295
			c-4.192-2.021-8.004-1.475-10.147,2.918c-0.372,0.764-0.185,1.58,0.539,2.053c4.104,2.68,8.315,1.365,11.817-1.664
			c0.504-0.438,0.556-1.268,0.234-1.816c-0.734-1.261-1.456-2.242-2.615-3.162c-1.5-1.188-3.638,0.92-2.121,2.121
			c0.972,0.615,1.687,1.467,2.146,2.554c0.079-0.604,0.157-1.212,0.235-1.817c-2.485,2.148-5.178,3.155-8.184,1.194
			c0.18,0.685,0.359,1.368,0.539,2.052c1.534-2.882,3.549-3.497,6.042-1.842c0.918,0.441,2.38-0.064,2.257-1.295
			c-0.9-9.014-0.6-18.094-1.957-27.065C47.539,65.79,44.648,66.602,44.935,68.495L44.935,68.495z"/>
	</g>
</g>
</svg>
