<?xml version="1.0" encoding="utf-8"?>
<!-- Generator: Adobe Illustrator 15.0.2, SVG Export Plug-In  -->
<!DOCTYPE svg PUBLIC "-//W3C//DTD SVG 1.1//EN" "http://www.w3.org/Graphics/SVG/1.1/DTD/svg11.dtd" [
	<!ENTITY ns_flows "http://ns.adobe.com/Flows/1.0/">
]>
<svg version="1.1"
	 xmlns="http://www.w3.org/2000/svg" xmlns:xlink="http://www.w3.org/1999/xlink" xmlns:a="http://ns.adobe.com/AdobeSVGViewerExtensions/3.0/"
	 x="0px" y="0px" width="480px" height="1248px" viewBox="-43.91 -18 480 1248"
	 overflow="visible" enable-background="new -43.91 -18 480 1248" xml:space="preserve">
<defs>
</defs>
<circle fill="#FFFFFF" cx="368.702" cy="13.357" r="2.222"/>
<circle fill="#FFFFFF" cx="368.702" cy="42.083" r="2.222"/>
<circle fill="#FFFFFF" cx="368.702" cy="55.751" r="2.222"/>
<circle fill="#FFFFFF" cx="368.702" cy="68.879" r="2.221"/>
<circle fill="#FFFFFF" cx="368.702" cy="82.546" r="2.222"/>
<circle fill="#FFFFFF" cx="368.702" cy="96.213" r="2.222"/>
<circle fill="#FFFFFF" cx="368.702" cy="109.881" r="2.222"/>
<circle fill="#FFFFFF" cx="282.665" cy="3.578" r="3.182"/>
<circle fill="#FFFFFF" cx="269.89" cy="3.578" r="3.181"/>
<circle fill="#FFFFFF" cx="242.155" cy="3.578" r="3.181"/>
<circle fill="#FFFFFF" cx="229.38" cy="3.578" r="3.181"/>
<circle fill="#FFFFFF" cx="199.477" cy="3.179" r="3.182"/>
<circle fill="#FFFFFF" cx="186.702" cy="3.179" r="3.182"/>
<circle fill="#FFFFFF" cx="368.702" cy="31.198" r="2.221"/>
<rect x="94.449" y="0.574" fill="#FFFFFF" width="12.519" height="5.478"/>
<rect x="116.161" y="0.574" fill="#FFFFFF" width="12.519" height="5.478"/>
<rect x="136.628" y="0.574" fill="#FFFFFF" width="12.52" height="5.478"/>
<circle fill="#FFFFFF" cx="367.591" cy="254.396" r="2.222"/>
<circle fill="#FFFFFF" cx="367.591" cy="240.729" r="2.222"/>
<circle fill="#FFFFFF" cx="367.591" cy="227.061" r="2.222"/>
<circle fill="#FFFFFF" cx="367.591" cy="213.393" r="2.221"/>
<circle fill="#FFFFFF" cx="367.591" cy="200.266" r="2.222"/>
<circle fill="#FFFFFF" cx="367.591" cy="186.598" r="2.223"/>
<circle fill="#FFFFFF" cx="367.591" cy="172.931" r="2.222"/>
<circle fill="#FFFFFF" cx="367.591" cy="159.263" r="2.222"/>
<path fill="none" stroke="#FFFFFF" stroke-miterlimit="10" d="M365.411,112.392h-68.176c0,0-10.333,5.461-6.094,15.803"/>
<path fill="none" stroke="#FFFFFF" stroke-miterlimit="10" d="M365.411,98.724H290.12c0,0-18.722,2.342-19.555,21.57"/>
<path fill="none" stroke="#FFFFFF" stroke-miterlimit="10" d="M363.188,85.056h-92.623c0,0-21.452,3.972-20.576,27.335"/>
<path fill="none" stroke="#FFFFFF" stroke-miterlimit="10" d="M365.411,58.261h-126.37c0,0-23.988,6.638-30.425,38.241"/>
<path fill="none" stroke="#FFFFFF" stroke-miterlimit="10" d="M365.411,44.594H225.035c0,0-37.152,5.335-40.438,42.685"/>
<circle fill="#FFFFFF" cx="296.668" cy="112.592" r="2.422"/>
<circle fill="#FFFFFF" cx="287.962" cy="98.724" r="2.422"/>
<circle fill="#FFFFFF" cx="270.565" cy="85.057" r="2.421"/>
<circle fill="#FFFFFF" cx="237.881" cy="58.26" r="2.421"/>
<circle fill="#FFFFFF" cx="222.612" cy="44.593" r="2.422"/>
<path fill="none" stroke="#FFFFFF" stroke-miterlimit="10" d="M365.411,71.389L249.963,73.61c0,0-22.193,13.167-18.106,31.817"/>
<circle fill="#FFFFFF" cx="10.903" cy="5.69" r="3.181"/>
<circle fill="#FFFFFF" cx="10.903" cy="18.465" r="3.181"/>
<circle fill="#FFFFFF" cx="32.168" cy="5.69" r="3.181"/>
<circle fill="#FFFFFF" cx="32.168" cy="18.465" r="3.181"/>
<circle fill="#FFFFFF" cx="54.645" cy="5.69" r="3.181"/>
<circle fill="#FFFFFF" cx="54.645" cy="18.465" r="3.181"/>
<circle fill="#FFFFFF" cx="73.104" cy="5.69" r="3.181"/>
<circle fill="#FFFFFF" cx="73.104" cy="18.465" r="3.181"/>
<circle fill="#FFFFFF" cx="73.104" cy="42.02" r="3.181"/>
<circle fill="#FFFFFF" cx="73.104" cy="54.794" r="3.181"/>
<polyline fill="none" stroke="#FFFFFF" stroke-miterlimit="10" points="378.788,320.395 240.303,320.395 208.616,393.569 
	19.948,393.569 "/>
<polyline fill="none" stroke="#FFFFFF" stroke-miterlimit="10" points="378.788,327.724 247.542,327.725 212.845,406.55 
	65.391,406.55 "/>
<polyline fill="none" stroke="#FFFFFF" stroke-miterlimit="10" points="378.788,335.143 252.386,335.143 220.19,411.188 
	57.827,411.188 "/>
<circle fill="#FFFFFF" cx="135.916" cy="612.436" r="3.055"/>
<circle fill="#FFFFFF" cx="117.123" cy="612.436" r="3.054"/>
<circle fill="#FFFFFF" cx="98.331" cy="612.436" r="3.056"/>
<circle fill="#FFFFFF" cx="79.536" cy="612.436" r="3.054"/>
<circle fill="#FFFFFF" cx="61.487" cy="612.436" r="3.055"/>
<circle fill="#FFFFFF" cx="42.693" cy="612.436" r="3.054"/>
<circle fill="#FFFFFF" cx="23.9" cy="612.436" r="3.056"/>
<circle fill="#FFFFFF" cx="5.107" cy="612.436" r="3.054"/>
<circle fill="#FFFFFF" cx="220.19" cy="428.141" r="2.221"/>
<circle fill="#FFFFFF" cx="220.19" cy="441.809" r="2.222"/>
<circle fill="#FFFFFF" cx="220.19" cy="455.477" r="2.221"/>
<circle fill="#FFFFFF" cx="220.19" cy="469.143" r="2.221"/>
<circle fill="#FFFFFF" cx="220.19" cy="482.271" r="2.221"/>
<circle fill="#FFFFFF" cx="220.19" cy="495.939" r="2.223"/>
<circle fill="#FFFFFF" cx="220.19" cy="509.606" r="2.222"/>
<circle fill="#FFFFFF" cx="220.19" cy="523.273" r="2.222"/>
<circle fill="#FFFFFF" cx="184.597" cy="428.14" r="2.222"/>
<circle fill="#FFFFFF" cx="184.597" cy="441.808" r="2.221"/>
<circle fill="#FFFFFF" cx="184.597" cy="455.476" r="2.223"/>
<circle fill="#FFFFFF" cx="184.597" cy="469.143" r="2.221"/>
<circle fill="#FFFFFF" cx="184.597" cy="482.27" r="2.222"/>
<circle fill="#FFFFFF" cx="184.597" cy="495.938" r="2.222"/>
<circle fill="#FFFFFF" cx="184.597" cy="509.605" r="2.223"/>
<circle fill="#FFFFFF" cx="184.597" cy="523.272" r="2.221"/>
<path fill="none" stroke="#FFFFFF" stroke-miterlimit="10" d="M364.301,161.774h-68.177c0,0-10.332-5.462-6.094-15.805"/>
<path fill="none" stroke="#FFFFFF" stroke-miterlimit="10" d="M364.301,175.44h-75.292c0,0-18.723-2.342-19.554-21.569"/>
<path fill="none" stroke="#FFFFFF" stroke-miterlimit="10" d="M362.078,189.107h-92.624c0,0-21.453-3.971-20.576-27.333"/>
<path fill="none" stroke="#FFFFFF" stroke-miterlimit="10" d="M364.301,215.903H237.93c0,0-23.988-6.637-30.425-38.241"/>
<circle fill="#FFFFFF" cx="286.852" cy="175.44" r="2.422"/>
<circle fill="#FFFFFF" cx="269.455" cy="189.107" r="2.422"/>
<path fill="#FFFFFF" d="M236.769,213.482c-1.335,0-2.419,1.084-2.419,2.422s1.084,2.422,2.419,2.422c1.34,0,2.424-1.084,2.424-2.422
	S238.109,213.482,236.769,213.482z"/>
<path fill="none" stroke="#FFFFFF" stroke-miterlimit="10" d="M364.301,202.776l-115.449-2.222c0,0-22.192-13.168-18.104-31.817"/>
<path fill="#FFFFFF" d="M248.852,198.132c-1.336,0-2.42,1.084-2.42,2.423c0,1.336,1.084,2.42,2.42,2.42
	c1.34,0,2.424-1.084,2.424-2.42C251.276,199.216,250.192,198.132,248.852,198.132z"/>
<polyline fill="none" stroke="#FFFFFF" stroke-width="0.75" stroke-miterlimit="10" points="263.638,493.156 263.638,397.881 
	286.852,335.143 286.852,175.44 "/>
<polyline fill="none" stroke="#FFFFFF" stroke-width="0.75" stroke-miterlimit="10" points="269.455,186.686 269.455,356.981 
	257.821,393.568 257.821,501.459 257.821,538.263 257.821,1209.031 "/>
<polyline fill="none" stroke="#FFFFFF" stroke-width="0.75" stroke-miterlimit="10" points="248.852,200.555 248.852,513.802 
	248.852,538.263 248.852,1129.384 "/>
<polyline fill="none" stroke="#FFFFFF" stroke-width="0.75" stroke-miterlimit="10" points="236.771,215.904 236.771,309.265 
	202.873,384.007 19.948,384.007 "/>
<circle fill="none" stroke="#FFFFFF" stroke-width="0.75" stroke-miterlimit="10" cx="118.784" cy="213.482" r="24.987"/>
<circle fill="#FFFFFF" cx="325.055" cy="348.557" r="4.329"/>
<path fill="#FFFFFF" d="M325.055,379.521c-2.395,0-4.331-1.937-4.331-4.331c0-2.389,1.937-4.33,4.331-4.33
	c2.394,0,4.33,1.941,4.33,4.33C329.385,377.584,327.448,379.521,325.055,379.521z"/>
<path fill="#FFFFFF" d="M325.055,406.151c-2.395,0-4.331-1.936-4.331-4.329c0-2.391,1.937-4.328,4.331-4.328
	c2.394,0,4.33,1.938,4.33,4.328C329.385,404.216,327.448,406.151,325.055,406.151z"/>
<circle fill="#FFFFFF" cx="325.055" cy="428.455" r="4.328"/>
<circle fill="#FFFFFF" cx="325.055" cy="454.037" r="4.33"/>
<circle fill="#FFFFFF" cx="325.055" cy="480.668" r="4.329"/>
<circle fill="#FFFFFF" cx="325.055" cy="507.303" r="4.329"/>
<circle fill="#FFFFFF" cx="325.055" cy="533.934" r="4.329"/>
<path fill="#FFFFFF" d="M325.055,565.229c-2.395,0-4.331-1.94-4.331-4.328c0-2.394,1.937-4.331,4.331-4.331
	c2.392,0,4.329,1.938,4.329,4.331C329.384,563.288,327.446,565.229,325.055,565.229z"/>
<circle fill="#FFFFFF" cx="325.055" cy="587.531" r="4.33"/>
<circle fill="#FFFFFF" cx="325.055" cy="614.163" r="4.328"/>
<line fill="none" stroke="#FFFFFF" stroke-width="0.25" stroke-miterlimit="10" x1="325.055" y1="348.557" x2="269.782" y2="348.558"/>
<line fill="none" stroke="#FFFFFF" stroke-width="0.25" stroke-miterlimit="10" x1="325.055" y1="375.189" x2="248.852" y2="375.189"/>
<line fill="none" stroke="#FFFFFF" stroke-width="0.25" stroke-miterlimit="10" x1="325.055" y1="401.822" x2="263.638" y2="401.822"/>
<line fill="none" stroke="#FFFFFF" stroke-width="0.25" stroke-miterlimit="10" x1="325.055" y1="428.455" x2="220.19" y2="428.455"/>
<circle fill="#FFFFFF" cx="117.805" cy="197.159" r="4.424"/>
<circle fill="#FFFFFF" cx="101.843" cy="215.903" r="4.425"/>
<circle fill="#FFFFFF" cx="118.784" cy="230.294" r="4.424"/>
<circle fill="#FFFFFF" cx="135.174" cy="213.482" r="4.425"/>
<circle fill="#FFFFFF" cx="106.267" cy="202.975" r="4.425"/>
<circle fill="#FFFFFF" cx="106.267" cy="225.869" r="4.425"/>
<circle fill="#FFFFFF" cx="130.75" cy="225.869" r="4.425"/>
<circle fill="#FFFFFF" cx="130.75" cy="201.585" r="4.425"/>
<line fill="none" stroke="#FFFFFF" stroke-width="0.5" stroke-miterlimit="10" x1="237.881" y1="58.261" x2="237.881" y2="6.089"/>
<polyline fill="none" stroke="#FFFFFF" stroke-width="0.5" stroke-miterlimit="10" points="226.09,6.089 196.187,5.69 
	196.187,33.148 202.873,44.593 222.612,44.593 "/>
<polyline fill="none" stroke="#FFFFFF" stroke-width="0.5" stroke-miterlimit="10" points="270.565,85.056 270.565,33.148 
	365.411,33.148 "/>
<polyline fill="none" stroke="#FFFFFF" stroke-miterlimit="10" points="365.411,15.037 249.963,15.037 249.963,73.611 "/>
<circle fill="#FFFFFF" cx="249.963" cy="73.611" r="2.422"/>
<polyline fill="none" stroke="#FFFFFF" stroke-width="0.25" stroke-miterlimit="10" points="255.726,469.142 224.001,469.142 
	184.597,469.142 184.597,455.476 72.31,455.476 52.637,469.142 23.9,469.142 "/>
<polyline fill="none" stroke="#FFFFFF" stroke-width="0.75" stroke-miterlimit="10" points="263.638,490.423 263.638,538.263 
	263.638,1209.031 "/>
<circle fill="#FFFFFF" cx="72.31" cy="428.774" r="2.222"/>
<circle fill="#FFFFFF" cx="72.31" cy="442.441" r="2.221"/>
<circle fill="#FFFFFF" cx="72.31" cy="456.108" r="2.223"/>
<path fill="#FFFFFF" d="M72.31,471.998c-1.228,0-2.224-0.994-2.224-2.22c0-1.229,0.996-2.223,2.224-2.223
	c1.227,0,2.223,0.993,2.223,2.223C74.533,471.004,73.537,471.998,72.31,471.998z"/>
<circle fill="#FFFFFF" cx="72.31" cy="482.905" r="2.221"/>
<circle fill="#FFFFFF" cx="72.31" cy="496.572" r="2.222"/>
<path fill="#FFFFFF" d="M72.31,512.46c-1.228,0-2.224-0.993-2.224-2.223c0-1.226,0.996-2.22,2.224-2.22
	c1.227,0,2.223,0.994,2.223,2.22C74.533,511.467,73.537,512.46,72.31,512.46z"/>
<circle fill="#FFFFFF" cx="72.31" cy="523.907" r="2.222"/>
<circle fill="#FFFFFF" cx="18.712" cy="384.546" r="2.243"/>
<circle fill="#FFFFFF" cx="17.861" cy="393.569" r="3.477"/>
<line fill="none" stroke="#FFFFFF" stroke-miterlimit="10" x1="72.31" y1="427.941" x2="184.597" y2="427.941"/>
<polyline fill="none" stroke="#FFFFFF" stroke-width="0.5" stroke-miterlimit="10" points="325.055,454.036 263.638,454.036 
	248.852,482.27 184.597,482.27 72.31,482.27 52.636,496.572 2.053,496.572 "/>
<circle fill="#FFFFFF" cx="11.7" cy="42.02" r="3.182"/>
<circle fill="#FFFFFF" cx="11.7" cy="54.794" r="3.181"/>
<line fill="none" stroke="#FFFFFF" stroke-width="0.25" stroke-miterlimit="10" x1="8.521" y1="42.02" x2="8.521" y2="54.793"/>
<line fill="none" stroke="#FFFFFF" stroke-width="0.25" stroke-miterlimit="10" x1="14.882" y1="42.02" x2="14.882" y2="54.793"/>
<circle fill="#FFFFFF" cx="34.176" cy="42.02" r="3.181"/>
<circle fill="#FFFFFF" cx="34.176" cy="54.794" r="3.181"/>
<line fill="none" stroke="#FFFFFF" stroke-width="0.25" stroke-miterlimit="10" x1="30.998" y1="42.02" x2="30.998" y2="54.792"/>
<line fill="none" stroke="#FFFFFF" stroke-width="0.25" stroke-miterlimit="10" x1="37.357" y1="42.02" x2="37.357" y2="54.792"/>
<path fill="#FFFFFF" d="M52.636,45.201c-1.754,0-3.179-1.423-3.179-3.181s1.425-3.181,3.179-3.181c1.759,0,3.182,1.423,3.182,3.181
	S54.395,45.201,52.636,45.201z"/>
<path fill="#FFFFFF" d="M52.636,57.975c-1.754,0-3.179-1.424-3.179-3.183c0-1.756,1.425-3.18,3.179-3.18
	c1.759,0,3.182,1.423,3.182,3.18C55.818,56.551,54.395,57.975,52.636,57.975z"/>
<line fill="none" stroke="#FFFFFF" stroke-width="0.25" stroke-miterlimit="10" x1="49.457" y1="42.02" x2="49.457" y2="54.792"/>
<line fill="none" stroke="#FFFFFF" stroke-width="0.25" stroke-miterlimit="10" x1="55.818" y1="42.02" x2="55.818" y2="54.792"/>
<polyline fill="none" stroke="#FFFFFF" stroke-width="0.5" stroke-miterlimit="10" points="91.158,15.284 91.158,54.792 
	159.633,54.792 159.633,5.69 145.858,5.69 "/>
<line fill="none" stroke="#FFFFFF" stroke-miterlimit="10" x1="364.301" y1="243.239" x2="248.852" y2="243.239"/>
<line fill="none" stroke="#FFFFFF" stroke-width="0.25" stroke-miterlimit="10" x1="364.301" y1="256.906" x2="236.771" y2="256.906"/>
<circle fill="#FFFFFF" cx="285.594" cy="612.436" r="3.057"/>
<circle fill="#FFFFFF" cx="266.802" cy="612.436" r="3.054"/>
<circle fill="#FFFFFF" cx="248.01" cy="612.436" r="3.056"/>
<circle fill="#FFFFFF" cx="229.215" cy="612.436" r="3.054"/>
<circle fill="#FFFFFF" cx="211.165" cy="612.436" r="3.055"/>
<path fill="#FFFFFF" d="M189.319,612.436c0-1.688,1.367-3.057,3.051-3.057c1.69,0,3.057,1.368,3.057,3.057
	c0,1.686-1.367,3.055-3.057,3.055C190.686,615.49,189.319,614.121,189.319,612.436z"/>
<circle fill="#FFFFFF" cx="173.579" cy="612.436" r="3.056"/>
<path fill="#FFFFFF" d="M151.733,612.436c0-1.688,1.367-3.057,3.052-3.057c1.689,0,3.055,1.368,3.055,3.057
	c0,1.686-1.365,3.055-3.055,3.055C153.1,615.49,151.733,614.121,151.733,612.436z"/>
<circle fill="#FFFFFF" cx="58.652" cy="411.241" r="2.834"/>
<circle fill="#FFFFFF" cx="65.391" cy="406.55" r="2.835"/>
<polyline fill="none" stroke="#FFFFFF" stroke-width="0.25" stroke-miterlimit="10" points="263.638,454.036 220.19,454.036 
	184.597,441.806 72.31,441.806 45.747,441.806 "/>
<circle fill="#FFFFFF" cx="42.694" cy="442.078" r="3.054"/>
<circle fill="#FFFFFF" cx="23.9" cy="469.142" r="3.054"/>
<circle fill="#FFFFFF" cx="3.054" cy="496.572" r="3.054"/>
<circle fill="#FFFFFF" cx="184.596" cy="88.263" r="2.422"/>
<circle fill="#FFFFFF" cx="208.615" cy="96.303" r="2.421"/>
<circle fill="#FFFFFF" cx="231.856" cy="105.427" r="2.421"/>
<circle fill="#FFFFFF" cx="249.963" cy="113.907" r="2.421"/>
<circle fill="#FFFFFF" cx="270.565" cy="120.293" r="2.421"/>
<circle fill="#FFFFFF" cx="290.383" cy="128.195" r="2.421"/>
<circle fill="#FFFFFF" cx="370.365" cy="15.665" r="2.222"/>
<circle fill="#FFFFFF" cx="370.365" cy="44.39" r="2.222"/>
<circle fill="#FFFFFF" cx="370.365" cy="58.058" r="2.221"/>
<circle fill="#FFFFFF" cx="370.365" cy="71.186" r="2.221"/>
<circle fill="#FFFFFF" cx="370.365" cy="84.853" r="2.222"/>
<circle fill="#FFFFFF" cx="370.365" cy="98.521" r="2.222"/>
<circle fill="#FFFFFF" cx="370.365" cy="112.188" r="2.222"/>
<circle fill="#FFFFFF" cx="284.329" cy="5.885" r="3.182"/>
<circle fill="#FFFFFF" cx="271.554" cy="5.885" r="3.181"/>
<circle fill="#FFFFFF" cx="243.819" cy="5.885" r="3.182"/>
<circle fill="#FFFFFF" cx="231.043" cy="5.885" r="3.181"/>
<circle fill="#FFFFFF" cx="201.141" cy="5.486" r="3.181"/>
<circle fill="#FFFFFF" cx="188.366" cy="5.486" r="3.182"/>
<circle fill="#FFFFFF" cx="370.365" cy="33.505" r="2.222"/>
<rect x="96.112" y="2.881" fill="#FFFFFF" width="12.52" height="5.477"/>
<rect x="117.825" y="2.881" fill="#FFFFFF" width="12.52" height="5.477"/>
<rect x="138.292" y="2.881" fill="#FFFFFF" width="12.52" height="5.477"/>
<circle fill="#FFFFFF" cx="369.255" cy="256.703" r="2.222"/>
<circle fill="#FFFFFF" cx="369.255" cy="243.036" r="2.222"/>
<circle fill="#FFFFFF" cx="369.255" cy="229.368" r="2.222"/>
<circle fill="#FFFFFF" cx="369.255" cy="215.7" r="2.221"/>
<circle fill="#FFFFFF" cx="369.255" cy="202.574" r="2.222"/>
<circle fill="#FFFFFF" cx="369.255" cy="188.905" r="2.222"/>
<circle fill="#FFFFFF" cx="369.255" cy="175.238" r="2.221"/>
<circle fill="#FFFFFF" cx="369.255" cy="161.57" r="2.222"/>
</svg>
