<?xml version="1.0" encoding="utf-8"?>
<!-- Generator: Adobe Illustrator 16.0.0, SVG Export Plug-In . SVG Version: 6.00 Build 0)  -->
<!DOCTYPE svg PUBLIC "-//W3C//DTD SVG 1.1//EN" "http://www.w3.org/Graphics/SVG/1.1/DTD/svg11.dtd">
<svg version="1.1" id="Layer_1" xmlns="http://www.w3.org/2000/svg" xmlns:xlink="http://www.w3.org/1999/xlink" x="0px" y="0px"
	 width="80px" height="80px" viewBox="0 0 80 80" enable-background="new 0 0 80 80" xml:space="preserve">
<g>
	<path fill="#FDFF00" d="M38.143,25.095c-1.904,6.19-6.19,11.905-9.523,17.619c2.857,1.428,6.666,1.428,9.523,1.905
		c-0.477,8.095-5.714,18.571-9.047,25.713c2.381,0,4.762,0.477,7.143,0.477C42.429,60.333,45.285,47.952,51,37.476
		c-2.857-0.476-5.715-0.952-8.096-1.429c3.334-8.095,10-15.714,10.953-24.762c-5.238,0.953-7.619,0-10.953,2.857
		c-2.856,2.857-4.285,8.572-5.238,12.381"/>
	<g>
		<path d="M36.696,24.696c-2.134,6.265-6.014,11.623-9.372,17.261c-0.544,0.913,0.023,1.841,0.896,2.203
			c3.077,1.277,6.262,1.444,9.523,1.905c-0.367-0.482-0.734-0.964-1.102-1.446c-0.79,8.844-5.133,17.043-8.842,24.957
			c-0.486,1.037,0.094,2.207,1.295,2.257c2.388,0.1,4.755,0.377,7.143,0.477c0.518,0.021,1.042-0.3,1.295-0.743
			c6.061-10.604,9.066-22.557,14.762-33.333c0.413-0.781,0.104-2.036-0.896-2.203c-2.703-0.452-5.404-0.91-8.096-1.429
			c0.299,0.734,0.598,1.469,0.896,2.203c3.683-8.442,9.773-15.784,11.104-25.12c0.171-1.196-0.637-2.033-1.845-1.845
			c-3.624,0.561-8.905,0.124-11.615,3.243c-3.21,3.694-4.451,8.388-5.624,13.043c-0.473,1.877,2.42,2.673,2.893,0.798
			c0.873-3.466,1.796-6.854,3.537-10.004c2.325-4.207,7.564-3.561,11.606-4.187c-0.615-0.615-1.229-1.23-1.845-1.845
			c-1.294,9.069-7.225,16.202-10.802,24.404c-0.355,0.815-0.146,2.002,0.896,2.203c2.691,0.52,5.392,0.978,8.096,1.429
			c-0.299-0.734-0.598-1.469-0.896-2.203c-3.036,5.743-5.336,11.789-7.669,17.841c-1.421,3.686-2.924,7.331-4.626,10.897
			c-2.12,4.441-3.824,3.563-8.314,3.375c0.432,0.752,0.863,1.505,1.295,2.257c3.951-8.428,8.412-17.062,9.252-26.47
			c0.053-0.596-0.492-1.36-1.102-1.446c-3.243-0.459-6.467-0.636-9.523-1.905c0.299,0.734,0.598,1.469,0.896,2.203
			c3.501-5.876,7.453-11.452,9.675-17.977C40.215,23.657,37.316,22.875,36.696,24.696L36.696,24.696z"/>
	</g>
</g>
</svg>
