<?xml version="1.0" encoding="utf-8"?>
<!-- Generator: Adobe Illustrator 16.0.0, SVG Export Plug-In . SVG Version: 6.00 Build 0)  -->
<!DOCTYPE svg PUBLIC "-//W3C//DTD SVG 1.1//EN" "http://www.w3.org/Graphics/SVG/1.1/DTD/svg11.dtd">
<svg version="1.1" id="Layer_1" xmlns="http://www.w3.org/2000/svg" xmlns:xlink="http://www.w3.org/1999/xlink" x="0px" y="0px"
	 width="413.762px" height="87.381px" viewBox="0 0 413.762 87.381" enable-background="new 0 0 413.762 87.381"
	 xml:space="preserve">
<g>
	<g>
		<path d="M47.667,22.797c7.885-0.579,15.868-2.961,23.293-5.537c0.551-0.191,0.713-0.814,0.331-1.253
			c-0.142-0.164-0.284-0.327-0.427-0.49c-0.637-0.73-1.693,0.335-1.061,1.061c0.142,0.163,0.285,0.327,0.427,0.49
			c0.11-0.418,0.221-0.836,0.331-1.253c-7.276,2.524-15.173,4.916-22.895,5.483C46.708,21.368,46.701,22.868,47.667,22.797
			L47.667,22.797z"/>
	</g>
</g>
<g>
	<g>
		<path d="M46.019,24.759c3.25,7.531,2.601,15.943,2.564,23.955c-0.002,0.44,0.345,0.708,0.75,0.75
			C54,49.94,59.425,47.811,63.85,46.629c4.474-1.194,8.925-2.491,13.35-3.859c0.921-0.285,0.528-1.733-0.398-1.446
			c-6.704,2.072-13.464,4.02-20.3,5.606c-1.75,0.407-3.517,0.772-5.301,0.996c-0.503,0.063-1.004,0.08-1.51,0.074
			c0.744,0.008,0.442-4.826,0.446-5.338c0.051-6.372-0.268-12.742-2.822-18.66C46.932,23.116,45.64,23.881,46.019,24.759
			L46.019,24.759z"/>
	</g>
</g>
<g>
	<g>
		<path d="M52.333,39.464c7.117-0.186,13.912-2.522,21-3c0.96-0.065,0.966-1.565,0-1.5c-7.084,0.478-13.891,2.814-21,3
			C51.368,37.99,51.366,39.49,52.333,39.464L52.333,39.464z"/>
	</g>
</g>
<g>
	<g>
		<path d="M85.917,28.714c0.039,3.952,1.099,16.774,7.873,15.001c6.013-1.574,12.743-11.522,12.294-17.668
			c-0.07-0.954-1.522-0.976-1.5,0c0.113,4.938,1.1,9.667,3.436,14.045c0.455,0.854,1.75,0.096,1.295-0.757
			c-2.219-4.161-3.124-8.598-3.23-13.289c-0.5,0-1,0-1.5,0c0.401,5.494-5.181,12.69-9.484,15.529
			c-6.318,4.169-7.648-9.387-7.683-12.862C87.407,27.748,85.907,27.747,85.917,28.714L85.917,28.714z"/>
	</g>
</g>
<g>
	<g>
		<path d="M115.943,28.247c1.132,4.721,1.02,9.668,1.64,14.468c0.124,0.956,1.393,0.973,1.5,0
			c0.524-4.759,3.499-10.161,7.505-12.821c6.845-4.544,8.292,7.056,8.328,11.154c0.008,0.967,1.508,0.968,1.5,0
			c-0.045-5.205-0.949-14.188-8.157-13.364c-6.03,0.689-10.105,9.841-10.676,15.031c0.5,0,1,0,1.5,0
			c-0.638-4.936-0.529-10.01-1.694-14.866C117.164,26.908,115.718,27.307,115.943,28.247L115.943,28.247z"/>
	</g>
</g>
<g>
	<g>
		<path d="M149.864,28.851c-1.435-1.475-3.37-0.057-4.309,1.35c-2.365,3.541-1.936,6.602,0.799,9.718
			c6.215,7.08,10.105-6.667,10.703-10.672c-0.491-0.066-0.982-0.133-1.473-0.199c0.683,6.818,5.854,29.062-5.583,29.151
			c-0.899,0.007-10.409-0.761-7.526-3.805c1.751-1.85,5.342-2.334,7.71-2.851c4.298-0.938,8.729-1.145,13.015-2.105
			c0.944-0.211,0.543-1.657-0.398-1.446c-6.489,1.454-13.312,1.343-19.483,4.098c-5.101,2.276-2.651,5.953,1.582,7.03
			c18.231,4.64,13.235-19.568,12.184-30.072c-0.078-0.773-1.339-1.099-1.473-0.199c-0.417,2.799-1.113,5.525-2.277,8.112
			c-1.122,2.492-2.887,4.588-5.918,1.897c-1.664-1.365-2.27-3.164-1.819-5.395c0.072-0.383,2.034-4.758,3.208-3.552
			C149.479,30.605,150.539,29.544,149.864,28.851L149.864,28.851z"/>
	</g>
</g>
<g>
	<g>
		<path d="M196.134,17.104c6.537,2.31,16.447-0.908,22.245-4.076c0.849-0.464,0.092-1.759-0.758-1.295
			c-5.438,2.971-15.021,6.068-21.088,3.924C195.619,15.334,195.229,16.784,196.134,17.104L196.134,17.104z"/>
	</g>
</g>
<g>
	<g>
		<path d="M209.686,15.759c3.331,6.079,4.715,13.996,3.255,20.797c-1.89,8.799-16.085,4.419-12.884-3.31
			c0.37-0.894-1.082-1.279-1.447-0.398c-2.683,6.48,5.895,12.573,11.738,9.508c8.633-4.527,4.192-20.86,0.633-27.354
			C210.516,14.154,209.221,14.911,209.686,15.759L209.686,15.759z"/>
	</g>
</g>
<g>
	<g>
		<path d="M223.583,32.714c0.332,2.878,0.333,5.773,0.334,8.667c0,0.967,1.5,0.967,1.5,0c-0.001-2.894-0.002-5.788-0.334-8.667
			C224.974,31.765,223.472,31.754,223.583,32.714L223.583,32.714z"/>
	</g>
</g>
<g>
	<g>
		<path d="M224.667,26.464c0.111,0,0.222,0,0.333,0c0.968,0,0.968-1.5,0-1.5c-0.111,0-0.222,0-0.333,0
			C223.699,24.964,223.699,26.464,224.667,26.464L224.667,26.464z"/>
	</g>
</g>
<g>
	<g>
		<path d="M234.25,30.047c0.315,4.773,0.332,9.552,0.333,14.333c0,0.856,1.234,1.009,1.474,0.199
			c1.168-3.961,2.121-8.507,4.957-11.656c4.515-5.013,7.176,5.571,7.236,8.457c0.021,0.966,1.521,0.968,1.5,0
			c-0.087-4.165-1.819-11.852-7.406-10.986c-4.953,0.767-6.622,10.018-7.734,13.787c0.491,0.066,0.982,0.133,1.474,0.199
			c-0.001-4.781-0.018-9.561-0.333-14.333C235.687,29.087,234.187,29.081,234.25,30.047L234.25,30.047z"/>
	</g>
</g>
<g>
	<g>
		<path d="M283.609,16.247c0.37,1.223-0.636,3.88-0.852,5.109c-0.532,3.024-1.052,6.051-1.482,9.092
			c-0.483,3.419-1.061,6.593,1.799,9.078c3.13,2.72,8.544,2.28,12.321,1.935c2.164-0.198,4.312-0.582,6.443-0.997
			c1.228-0.239,3.399-1.214,4.629-1.025c0.945,0.146,1.353-1.3,0.398-1.446c-2.104-0.323-5.02,0.958-7.076,1.338
			c-4.749,0.876-10.759,1.813-15.211-0.576c-4.311-2.314-1.504-10.417-0.893-14.023c0.391-2.305,2.073-6.554,1.37-8.882
			C284.777,14.925,283.329,15.318,283.609,16.247L283.609,16.247z"/>
	</g>
</g>
<g>
	<g>
		<path d="M310.468,37.438c3.518,1.124,11.532,0.472,11.699-4.749c0.14-4.369-5.318-4.16-7.879-2.289
			c-3.191,2.333-3.739,6.232-1.083,9.108c2.829,3.063,8.188,4.018,11.994,2.596c0.897-0.335,0.51-1.786-0.398-1.446
			c-3.897,1.456-10.64,0.086-11.853-4.517c-0.883-3.349,3.884-6.548,6.74-5.27c3.203,1.433-1.371,4.681-2.714,5.187
			c-1.953,0.735-4.166,0.554-6.108-0.066C309.942,35.696,309.55,37.145,310.468,37.438L310.468,37.438z"/>
	</g>
</g>
<g>
	<g>
		<path d="M329.47,36.245c2.09,2.41,6.685,1.486,9.065,0.089c1.278-0.75,2.138-2.062,1.953-3.565
			c-0.205-1.679-1.938-3.716-3.744-3.702c-4.456,0.034-6.73,6.117-5.975,9.821c0.93,4.562,7.341,3.373,10.43,2.55
			c0.934-0.249,0.537-1.696-0.398-1.446c-2.307,0.615-5.829,1.559-7.871-0.217c-2.415-2.101,0.086-6.801,1.836-8.432
			c1.676-1.561,4.579-0.12,4.242,2.175c-0.163,1.108-1.5,1.743-2.414,2.097c-1.671,0.646-4.728,1.109-6.063-0.431
			C329.896,34.452,328.839,35.518,329.47,36.245L329.47,36.245z"/>
	</g>
</g>
<g>
	<g>
		<path d="M350.917,42.714c0.297,2.328,0.332,4.656,0.333,7c0.5,0,1,0,1.5,0c-0.291-3.574,1.882-7.108,5.879-6.068
			c1.425,0.37,2.418,1.549,2.56,3.003c0.341,3.521-5.051,2.037-7.188,1.981c-0.968-0.025-0.966,1.475,0,1.5
			c2.131,0.055,4.222,0.512,6.338,0.08c1.726-0.352,2.194-1.337,2.349-2.917c0.205-2.108-1.084-4.008-2.969-4.841
			c-1.894-0.837-4.134-0.558-5.843,0.565c-2.222,1.46-2.828,4.205-2.625,6.697c0.077,0.951,1.501,0.979,1.5,0
			c-0.001-2.344-0.036-4.672-0.333-7C352.297,41.769,350.795,41.757,350.917,42.714L350.917,42.714z"/>
	</g>
</g>
<g>
	<g>
		<path d="M356.647,48.093c0.592-1.062,0.745-2.275,1.334-3.333c0.355-0.638-0.37-1.438-1.026-1.026
			c-1.676,1.053-3.089,2.39-4.485,3.784c-0.587,0.585,0.214,1.702,0.909,1.178c1.454-1.098,2.879-2.235,4.334-3.333
			c-0.343-0.342-0.685-0.684-1.026-1.026c-0.656,1.102-1.019,2.298-1.41,3.512c-0.24,0.747,0.729,1.217,1.254,0.729
			c0.984-0.914,2.171-1.596,3-2.667c-0.393-0.303-0.785-0.606-1.178-0.909c-0.489,0.751-0.938,1.519-1.549,2.182
			c-0.599,0.65,0.147,1.536,0.909,1.178c0.894-0.42,1.729-0.803,2.484-1.451c-0.418-0.11-0.836-0.221-1.254-0.331
			c-0.021-0.062-0.625,0.825-0.667,0.935c-0.213,0.563,0.413,1.044,0.923,0.922c0.677-0.162,1.033-0.848,1.667-1
			c-0.282-0.367-0.564-0.734-0.847-1.102c-1.472,1.946-5.931-1.263-2.641-3.308c-0.304-0.393-0.606-0.785-0.909-1.178
			c-0.849,0.947-1.467,2.064-2.333,3c-0.394,0.425-0.168,1.373,0.53,1.28c2.051-0.272,4.083-0.34,6.134-0.027
			c0.066-0.491,0.133-0.982,0.199-1.473c-0.832-0.003-1.681-0.01-2.467-0.307c0.11,0.418,0.221,0.835,0.331,1.253
			c0.582-0.733,0.843-1.366,0.45-2.242c-0.347-0.774-1.668-0.216-1.371,0.578c0.388,1.032-0.288,1.702-0.667,2.602
			c-0.374,0.891,1.078,1.276,1.447,0.398c0.526-1.253,1.191-1.999,0.667-3.398c-0.457,0.192-0.914,0.385-1.371,0.578
			c-0.072,0.142-0.144,0.283-0.216,0.424c-0.365,0.46-0.231,1.042,0.331,1.253c0.901,0.34,1.912,0.357,2.865,0.36
			c0.824,0.003,1.053-1.343,0.199-1.473c-2.191-0.335-4.335-0.318-6.532-0.027c0.177,0.427,0.354,0.854,0.53,1.28
			c0.867-0.936,1.484-2.054,2.333-3c0.552-0.615-0.157-1.645-0.909-1.178c-2.096,1.303-2.723,3.502-0.917,5.377
			c1.556,1.615,4.208,1.838,5.61-0.018c0.426-0.562-0.271-1.24-0.847-1.102c-0.677,0.162-1.034,0.848-1.667,1
			c0.308,0.308,0.615,0.615,0.923,0.922c0.255-0.673,0.956-0.895,0.667-1.732c-0.192-0.556-0.812-0.709-1.254-0.331
			c-0.65,0.558-1.417,0.857-2.182,1.216c0.304,0.393,0.606,0.785,0.909,1.178c0.699-0.759,1.222-1.623,1.783-2.485
			c0.46-0.706-0.654-1.585-1.178-0.909c-0.827,1.069-2.017,1.754-3,2.667c0.418,0.243,0.836,0.486,1.254,0.729
			c0.352-1.091,0.666-2.161,1.258-3.154c0.361-0.605-0.402-1.497-1.026-1.026c-1.454,1.098-2.879,2.235-4.334,3.333
			c0.304,0.393,0.606,0.785,0.909,1.178c1.306-1.303,2.613-2.563,4.183-3.549c-0.343-0.342-0.685-0.684-1.026-1.026
			c-0.592,1.062-0.745,2.275-1.334,3.333C354.882,48.182,356.177,48.938,356.647,48.093L356.647,48.093z"/>
	</g>
</g>
<g>
	<g>
		<path d="M355.334,48.297c-0.444,0.032-0.874-0.045-1.288-0.23c-0.127,0.466-0.253,0.932-0.379,1.397
			c2.874,0.354,5.745,0.587,8.532-0.36c0.844-0.287,0.623-1.37-0.199-1.473c-2.513-0.315-5.02-0.641-7.467-1.307
			c0.184,0.241,0.367,0.482,0.551,0.723c0.047-0.779,0.25-1.573,0.563-2.288c-0.466-0.126-0.932-0.252-1.397-0.378
			c-0.062,0.786-0.271,1.547-0.333,2.333c-0.077,0.965,1.424,0.958,1.5,0c0.062-0.786,0.271-1.547,0.333-2.333
			c0.058-0.721-1.099-1.059-1.397-0.378c-0.427,0.971-0.705,1.983-0.769,3.045c-0.02,0.33,0.243,0.64,0.551,0.723
			c2.575,0.701,5.222,1.029,7.865,1.36c-0.066-0.491-0.133-0.982-0.199-1.473c-2.664,0.905-5.394,0.644-8.134,0.307
			c-0.726-0.089-1.05,1.109-0.379,1.397c0.702,0.302,1.278,0.427,2.046,0.436C356.302,49.809,356.301,48.309,355.334,48.297
			L355.334,48.297z"/>
	</g>
</g>
</svg>
