<?xml version="1.0" encoding="utf-8"?>
<!-- Generator: Adobe Illustrator 15.0.2, SVG Export Plug-In  -->
<!DOCTYPE svg PUBLIC "-//W3C//DTD SVG 1.1//EN" "http://www.w3.org/Graphics/SVG/1.1/DTD/svg11.dtd" [
	<!ENTITY ns_flows "http://ns.adobe.com/Flows/1.0/">
]>
<svg version="1.1"
	 xmlns="http://www.w3.org/2000/svg" xmlns:xlink="http://www.w3.org/1999/xlink" xmlns:a="http://ns.adobe.com/AdobeSVGViewerExtensions/3.0/"
	 x="0px" y="0px" width="576px" height="396px" viewBox="-0.124 -17 576 396"
	 overflow="visible" enable-background="new -0.124 -17 576 396" xml:space="preserve">
<defs>
</defs>
<linearGradient id="SVGID_1_" gradientUnits="userSpaceOnUse" x1="161.4204" y1="81.1797" x2="520.3672" y2="292.3249">
	<stop  offset="0.5583" style="stop-color:#FFFFFF"/>
	<stop  offset="0.5979" style="stop-color:#FFFFFF;stop-opacity:0.9104"/>
	<stop  offset="1" style="stop-color:#FFFFFF;stop-opacity:0"/>
</linearGradient>
<path fill="url(#SVGID_1_)" d="M524.194,0v263.835h-1.075L356.199,0h-0.609h-69.389h-12.417h-44.153h-60.685v23.13h0.09v222.048
	c0,38.733-27.444,64.13-68.611,64.13c-27.443,0-50.524-13.775-54.891-32.28L0,292.953c13.722,30.558,56.139,49.494,101.671,49.494
	c52.397,0,118.513-17.646,118.513-96.838V23.13h9.446v311.721h44.153V23.13h12.417v311.721h44.153V30.557h1.079l192.762,304.294
	h44.154V0H524.194z"/>
<path fill="#F1F2F2" d="M366.801,334.963c0,0.245-0.017,0.458-0.051,0.641c-0.031,0.185-0.088,0.336-0.168,0.459
	c-0.082,0.121-0.175,0.21-0.279,0.264c-0.104,0.055-0.222,0.081-0.352,0.081h-15.058c-0.372,0-0.724-0.104-1.055-0.314
	s-0.497-0.581-0.497-1.109v-23.478c0-0.53,0.166-0.899,0.497-1.109s0.683-0.315,1.055-0.315h14.888c0.129,0,0.247,0.027,0.352,0.081
	s0.189,0.144,0.255,0.265c0.064,0.122,0.117,0.275,0.158,0.458c0.04,0.184,0.061,0.41,0.061,0.682c0,0.245-0.021,0.458-0.061,0.641
	c-0.041,0.183-0.094,0.334-0.158,0.448c-0.065,0.115-0.15,0.199-0.255,0.254s-0.223,0.081-0.352,0.081h-12.27v8.26h10.523
	c0.13,0,0.247,0.031,0.353,0.093c0.104,0.061,0.193,0.146,0.266,0.254c0.074,0.108,0.126,0.258,0.159,0.446
	c0.031,0.19,0.048,0.414,0.048,0.673c0,0.243-0.017,0.454-0.048,0.631c-0.033,0.176-0.085,0.318-0.159,0.428
	c-0.072,0.108-0.161,0.186-0.266,0.233c-0.105,0.047-0.223,0.071-0.353,0.071h-10.523v9.419h12.439c0.13,0,0.247,0.028,0.352,0.082
	c0.104,0.055,0.197,0.139,0.279,0.254c0.08,0.116,0.137,0.264,0.168,0.448C366.784,334.465,366.801,334.692,366.801,334.963z"/>
<path fill="#F1F2F2" d="M393.458,326.683c0,1.601-0.278,3.028-0.836,4.282c-0.558,1.255-1.354,2.317-2.389,3.185
	c-1.035,0.868-2.296,1.525-3.783,1.975c-1.487,0.446-3.176,0.67-5.067,0.67c-1.729,0-3.306-0.211-4.729-0.631
	s-2.644-1.04-3.662-1.86c-1.018-0.821-1.803-1.849-2.352-3.083c-0.549-1.233-0.823-2.658-0.823-4.272v-16.338
	c0-0.107,0.031-0.203,0.097-0.283c0.064-0.082,0.178-0.146,0.339-0.194c0.161-0.047,0.372-0.088,0.631-0.121
	c0.258-0.034,0.597-0.052,1.019-0.052c0.388,0,0.719,0.018,0.994,0.052c0.274,0.033,0.488,0.074,0.643,0.121
	c0.152,0.048,0.263,0.112,0.327,0.194c0.064,0.08,0.097,0.176,0.097,0.283v15.91c0,1.221,0.178,2.286,0.533,3.194
	c0.354,0.909,0.869,1.665,1.539,2.27c0.672,0.603,1.48,1.057,2.426,1.362c0.946,0.306,2.009,0.457,3.188,0.457
	c1.213,0,2.291-0.147,3.237-0.446s1.745-0.746,2.4-1.344c0.654-0.597,1.155-1.336,1.503-2.217c0.349-0.882,0.521-1.912,0.521-3.092
	v-16.095c0-0.107,0.032-0.203,0.097-0.283c0.064-0.082,0.178-0.146,0.339-0.194c0.161-0.047,0.377-0.088,0.643-0.121
	c0.268-0.034,0.604-0.052,1.008-0.052c0.388,0,0.714,0.018,0.981,0.052c0.267,0.033,0.477,0.074,0.63,0.121
	c0.154,0.048,0.268,0.112,0.34,0.194c0.072,0.08,0.109,0.176,0.109,0.283V326.683z"/>
<path fill="#F1F2F2" d="M421.716,334.963c0,0.272-0.054,0.502-0.162,0.692c-0.109,0.19-0.252,0.346-0.426,0.469
	c-0.177,0.121-0.372,0.209-0.591,0.263c-0.217,0.055-0.434,0.082-0.651,0.082h-1.379c-0.436,0-0.815-0.037-1.141-0.111
	c-0.327-0.075-0.637-0.211-0.929-0.407s-0.585-0.465-0.878-0.804c-0.293-0.34-0.604-0.773-0.932-1.303l-9.571-14.974
	c-0.501-0.773-1.005-1.584-1.513-2.431c-0.509-0.848-0.982-1.672-1.42-2.473h-0.049c0.033,0.978,0.058,1.974,0.072,2.991
	c0.017,1.017,0.023,2.028,0.023,3.032v15.888c0,0.095-0.033,0.188-0.101,0.275s-0.183,0.157-0.347,0.204
	c-0.161,0.047-0.373,0.088-0.638,0.121c-0.265,0.034-0.603,0.051-1.012,0.051s-0.746-0.017-1.011-0.051
	c-0.265-0.033-0.475-0.074-0.627-0.121c-0.153-0.047-0.264-0.116-0.332-0.204s-0.103-0.181-0.103-0.275v-24.291
	c0-0.543,0.183-0.929,0.552-1.16c0.365-0.229,0.767-0.346,1.201-0.346h2.051c0.483,0,0.888,0.034,1.214,0.102
	c0.326,0.068,0.618,0.181,0.876,0.336c0.258,0.156,0.51,0.374,0.751,0.651s0.495,0.627,0.763,1.048l7.356,11.557
	c0.454,0.704,0.891,1.393,1.313,2.064c0.421,0.671,0.828,1.332,1.22,1.983c0.39,0.651,0.776,1.291,1.158,1.922
	c0.383,0.631,0.763,1.266,1.137,1.903h0.025c-0.034-1.071-0.053-2.188-0.062-3.348c-0.009-1.159-0.012-2.274-0.012-3.346v-14.283
	c0-0.095,0.034-0.183,0.102-0.265c0.067-0.08,0.184-0.152,0.346-0.213c0.163-0.062,0.376-0.105,0.64-0.133
	c0.265-0.026,0.61-0.04,1.037-0.04c0.374,0,0.698,0.014,0.973,0.04c0.272,0.027,0.485,0.071,0.638,0.133
	c0.154,0.061,0.265,0.133,0.335,0.213c0.067,0.082,0.101,0.17,0.101,0.265V334.963z"/>
<path fill="#F1F2F2" d="M449.902,313.662c0,0.258-0.018,0.485-0.05,0.682c-0.031,0.196-0.079,0.359-0.145,0.487
	c-0.064,0.13-0.146,0.222-0.243,0.275c-0.096,0.055-0.202,0.081-0.315,0.081c-0.193,0-0.518-0.129-0.97-0.387
	c-0.452-0.256-1.06-0.541-1.818-0.854c-0.76-0.312-1.67-0.597-2.728-0.854c-1.059-0.257-2.314-0.387-3.771-0.387
	c-1.729,0-3.281,0.266-4.654,0.795c-1.373,0.528-2.539,1.26-3.492,2.196c-0.954,0.937-1.685,2.049-2.194,3.337
	c-0.509,1.289-0.764,2.686-0.764,4.19c0,1.682,0.279,3.175,0.836,4.477c0.558,1.302,1.33,2.4,2.317,3.296
	c0.984,0.895,2.16,1.573,3.526,2.034s2.865,0.692,4.498,0.692c0.971,0,1.952-0.099,2.947-0.295c0.994-0.197,1.919-0.492,2.776-0.886
	v-7.67h-7.274c-0.276,0-0.481-0.114-0.619-0.346c-0.137-0.229-0.206-0.59-0.206-1.078c0-0.258,0.016-0.479,0.049-0.661
	c0.032-0.184,0.085-0.332,0.157-0.447c0.072-0.116,0.157-0.201,0.255-0.256c0.097-0.053,0.217-0.08,0.364-0.08h9.966
	c0.177,0,0.354,0.027,0.533,0.08c0.177,0.055,0.338,0.137,0.485,0.244c0.145,0.11,0.257,0.259,0.339,0.448
	c0.081,0.19,0.121,0.407,0.121,0.651v10.029c0,0.354-0.072,0.659-0.217,0.916c-0.147,0.258-0.454,0.485-0.922,0.682
	c-0.47,0.196-1.076,0.41-1.819,0.642c-0.744,0.229-1.513,0.428-2.304,0.59c-0.793,0.162-1.593,0.284-2.401,0.366
	c-0.808,0.08-1.607,0.121-2.399,0.121c-2.425,0-4.591-0.315-6.499-0.946c-1.907-0.629-3.521-1.528-4.837-2.694
	c-1.317-1.167-2.323-2.564-3.02-4.191c-0.695-1.629-1.042-3.446-1.042-5.452c0-2.089,0.375-3.98,1.127-5.677s1.81-3.141,3.177-4.334
	c1.365-1.193,3.007-2.119,4.924-2.776c1.913-0.658,4.035-0.986,6.363-0.986c1.195,0,2.319,0.088,3.371,0.264
	c1.05,0.177,1.984,0.384,2.8,0.621c0.816,0.236,1.505,0.494,2.061,0.772c0.559,0.278,0.941,0.506,1.153,0.683
	c0.209,0.176,0.354,0.379,0.436,0.608C449.861,312.896,449.902,313.228,449.902,313.662z"/>
<path fill="#F1F2F2" d="M469.005,329.775c0,1.045-0.114,2.001-0.341,2.868c-0.226,0.868-0.614,1.607-1.163,2.218
	s-1.272,1.082-2.171,1.414c-0.896,0.332-2.009,0.498-3.334,0.498c-0.451,0-0.901-0.03-1.346-0.092
	c-0.444-0.06-0.852-0.142-1.224-0.244c-0.372-0.101-0.696-0.209-0.971-0.325c-0.274-0.115-0.457-0.213-0.545-0.294
	c-0.089-0.082-0.162-0.163-0.218-0.245c-0.058-0.08-0.106-0.179-0.146-0.295c-0.041-0.115-0.068-0.257-0.086-0.427
	c-0.017-0.17-0.023-0.377-0.023-0.621c0-0.298,0.012-0.546,0.036-0.741c0.023-0.198,0.068-0.354,0.133-0.469s0.142-0.196,0.23-0.244
	c0.089-0.047,0.197-0.071,0.327-0.071s0.296,0.051,0.498,0.153c0.201,0.101,0.443,0.213,0.728,0.336
	c0.281,0.121,0.608,0.233,0.982,0.334c0.37,0.103,0.806,0.153,1.31,0.153c0.549,0,1.018-0.058,1.405-0.174
	c0.388-0.114,0.712-0.328,0.971-0.64c0.257-0.312,0.452-0.743,0.581-1.292c0.129-0.55,0.193-1.265,0.193-2.147V310.59
	c0-0.095,0.034-0.184,0.097-0.264c0.064-0.082,0.178-0.149,0.342-0.205c0.16-0.053,0.376-0.094,0.641-0.121
	c0.267-0.027,0.603-0.041,1.007-0.041c0.389,0,0.719,0.014,0.994,0.041c0.276,0.027,0.489,0.068,0.644,0.121
	c0.152,0.056,0.266,0.123,0.338,0.205c0.074,0.08,0.11,0.169,0.11,0.264V329.775z"/>
<path fill="#F1F2F2" d="M477.72,335.878c0,0.109-0.034,0.205-0.099,0.285c-0.064,0.082-0.177,0.147-0.339,0.194
	s-0.375,0.088-0.643,0.121c-0.266,0.034-0.603,0.051-1.006,0.051c-0.388,0-0.72-0.017-0.994-0.051
	c-0.275-0.033-0.494-0.074-0.655-0.121s-0.275-0.112-0.338-0.194c-0.066-0.08-0.099-0.176-0.099-0.285v-25.269
	c0-0.107,0.037-0.203,0.109-0.283c0.073-0.082,0.193-0.146,0.365-0.194c0.168-0.047,0.387-0.088,0.653-0.121
	c0.266-0.034,0.586-0.052,0.958-0.052c0.403,0,0.74,0.018,1.006,0.052c0.268,0.033,0.48,0.074,0.643,0.121
	c0.162,0.048,0.274,0.112,0.339,0.194c0.064,0.08,0.099,0.176,0.099,0.283V335.878z"/>
<path fill="#F1F2F2" d="M506.05,334.963c0,0.272-0.054,0.502-0.162,0.692s-0.252,0.346-0.427,0.469
	c-0.176,0.121-0.373,0.209-0.59,0.263c-0.216,0.055-0.436,0.082-0.652,0.082h-1.379c-0.435,0-0.815-0.037-1.142-0.111
	c-0.326-0.075-0.635-0.211-0.928-0.407c-0.292-0.196-0.586-0.465-0.877-0.804c-0.292-0.34-0.604-0.773-0.932-1.303l-9.572-14.974
	c-0.5-0.773-1.005-1.584-1.514-2.431c-0.508-0.848-0.979-1.672-1.418-2.473h-0.048c0.031,0.978,0.055,1.974,0.072,2.991
	c0.016,1.017,0.023,2.028,0.023,3.032v15.888c0,0.095-0.033,0.188-0.102,0.275c-0.069,0.088-0.185,0.157-0.346,0.204
	c-0.163,0.047-0.376,0.088-0.641,0.121c-0.264,0.034-0.602,0.051-1.011,0.051s-0.746-0.017-1.01-0.051
	c-0.264-0.033-0.474-0.074-0.627-0.121c-0.154-0.047-0.264-0.116-0.333-0.204c-0.067-0.088-0.102-0.181-0.102-0.275v-24.291
	c0-0.543,0.184-0.929,0.55-1.16c0.368-0.229,0.768-0.346,1.201-0.346h2.054c0.483,0,0.887,0.034,1.213,0.102
	c0.325,0.068,0.617,0.181,0.876,0.336c0.258,0.156,0.508,0.374,0.751,0.651c0.241,0.277,0.495,0.627,0.761,1.048l7.359,11.557
	c0.453,0.704,0.89,1.393,1.312,2.064c0.421,0.671,0.828,1.332,1.218,1.983s0.777,1.291,1.16,1.922s0.762,1.266,1.137,1.903h0.023
	c-0.031-1.071-0.053-2.188-0.06-3.348c-0.009-1.159-0.013-2.274-0.013-3.346v-14.283c0-0.095,0.034-0.183,0.103-0.265
	c0.068-0.08,0.183-0.152,0.346-0.213c0.161-0.062,0.375-0.105,0.641-0.133c0.265-0.026,0.608-0.04,1.035-0.04
	c0.375,0,0.7,0.014,0.972,0.04c0.272,0.027,0.486,0.071,0.641,0.133c0.154,0.061,0.265,0.133,0.332,0.213
	c0.069,0.082,0.103,0.17,0.103,0.265V334.963z"/>
<path fill="#F1F2F2" d="M534.439,334.882c0,0.271-0.016,0.498-0.049,0.682c-0.032,0.184-0.085,0.339-0.157,0.468
	s-0.161,0.225-0.268,0.285c-0.104,0.062-0.23,0.091-0.375,0.091h-13.869c-0.373,0-0.725-0.104-1.057-0.314
	c-0.331-0.21-0.496-0.581-0.496-1.109v-24.374c0-0.107,0.031-0.203,0.097-0.283c0.065-0.082,0.178-0.146,0.34-0.194
	c0.161-0.047,0.38-0.088,0.654-0.121c0.274-0.034,0.606-0.052,0.994-0.052c0.404,0,0.739,0.018,1.007,0.052
	c0.267,0.033,0.481,0.074,0.643,0.121c0.161,0.048,0.274,0.112,0.339,0.194c0.065,0.08,0.098,0.176,0.098,0.283v22.767h11.251
	c0.145,0,0.271,0.031,0.375,0.093c0.106,0.06,0.195,0.148,0.268,0.264s0.125,0.268,0.157,0.458
	C534.424,334.381,534.439,334.61,534.439,334.882z"/>
<path fill="#F1F2F2" d="M552.78,334.963c0,0.245-0.016,0.458-0.05,0.641c-0.031,0.185-0.089,0.336-0.168,0.459
	c-0.082,0.121-0.175,0.21-0.279,0.264c-0.106,0.055-0.223,0.081-0.352,0.081h-15.058c-0.373,0-0.725-0.104-1.055-0.314
	c-0.332-0.21-0.498-0.581-0.498-1.109v-23.478c0-0.53,0.166-0.899,0.498-1.109c0.33-0.21,0.682-0.315,1.055-0.315h14.888
	c0.129,0,0.247,0.027,0.352,0.081s0.189,0.144,0.254,0.265c0.065,0.122,0.118,0.275,0.159,0.458c0.04,0.184,0.061,0.41,0.061,0.682
	c0,0.245-0.021,0.458-0.061,0.641c-0.041,0.183-0.094,0.334-0.159,0.448c-0.064,0.115-0.149,0.199-0.254,0.254
	s-0.223,0.081-0.352,0.081h-12.27v8.26h10.523c0.13,0,0.247,0.031,0.352,0.093c0.104,0.061,0.194,0.146,0.267,0.254
	s0.126,0.258,0.157,0.446c0.033,0.19,0.049,0.414,0.049,0.673c0,0.243-0.016,0.454-0.049,0.631
	c-0.031,0.176-0.085,0.318-0.157,0.428c-0.072,0.108-0.162,0.186-0.267,0.233c-0.104,0.047-0.222,0.071-0.352,0.071h-10.523v9.419
	h12.439c0.129,0,0.245,0.028,0.352,0.082c0.104,0.055,0.197,0.139,0.279,0.254c0.079,0.116,0.137,0.264,0.168,0.448
	C552.765,334.465,552.78,334.692,552.78,334.963z"/>
<path fill="#F1F2F2" d="M573.304,334.963c0,0.245-0.017,0.458-0.048,0.641c-0.034,0.185-0.09,0.336-0.171,0.459
	c-0.081,0.121-0.174,0.21-0.278,0.264c-0.106,0.055-0.223,0.081-0.353,0.081h-15.058c-0.371,0-0.723-0.104-1.055-0.314
	s-0.497-0.581-0.497-1.109v-23.478c0-0.53,0.165-0.899,0.497-1.109s0.684-0.315,1.055-0.315h14.889c0.13,0,0.246,0.027,0.352,0.081
	c0.104,0.054,0.19,0.144,0.254,0.265c0.063,0.122,0.117,0.275,0.158,0.458c0.041,0.184,0.06,0.41,0.06,0.682
	c0,0.245-0.019,0.458-0.06,0.641s-0.095,0.334-0.158,0.448c-0.063,0.115-0.149,0.199-0.254,0.254
	c-0.105,0.055-0.222,0.081-0.352,0.081h-12.27v8.26h10.524c0.128,0,0.246,0.031,0.352,0.093c0.104,0.061,0.192,0.146,0.266,0.254
	c0.072,0.108,0.125,0.258,0.158,0.446c0.031,0.19,0.048,0.414,0.048,0.673c0,0.243-0.017,0.454-0.048,0.631
	c-0.033,0.176-0.086,0.318-0.158,0.428c-0.073,0.108-0.162,0.186-0.266,0.233c-0.105,0.047-0.224,0.071-0.352,0.071h-10.524v9.419
	h12.438c0.13,0,0.246,0.028,0.353,0.082c0.104,0.055,0.197,0.139,0.278,0.254c0.081,0.116,0.137,0.264,0.171,0.448
	C573.287,334.465,573.304,334.692,573.304,334.963z"/>
</svg>
